<svg width="1400" height="300" viewBox="0 0 1400 300" fill="none" xmlns="http://www.w3.org/2000/svg">
<g clip-path="url(#clip0_2437_526)">
<path d="M1382 0H18C8.05887 0 0 8.05887 0 18V282C0 291.941 8.05887 300 18 300H1382C1391.94 300 1400 291.941 1400 282V18C1400 8.05887 1391.94 0 1382 0Z" fill="white"/>
<path d="M536.529 88.3692C536.648 88.3692 536.762 88.3219 536.846 88.2377C536.93 88.1536 536.978 88.0394 536.978 87.9204C536.978 87.8014 536.93 87.6873 536.846 87.6031C536.762 87.519 536.648 87.4717 536.529 87.4717C536.41 87.4717 536.296 87.519 536.212 87.6031C536.127 87.6873 536.08 87.8014 536.08 87.9204C536.08 88.0394 536.127 88.1536 536.212 88.2377C536.296 88.3219 536.41 88.3692 536.529 88.3692Z" stroke="black" stroke-width="2.22937"/>
<path d="M529.205 113.067C529.324 113.067 529.438 113.02 529.522 112.936C529.606 112.852 529.653 112.738 529.653 112.619C529.653 112.5 529.606 112.386 529.522 112.301C529.438 112.217 529.324 112.17 529.205 112.17C529.086 112.17 528.971 112.217 528.887 112.301C528.803 112.386 528.756 112.5 528.756 112.619C528.756 112.738 528.803 112.852 528.887 112.936C528.971 113.02 529.086 113.067 529.205 113.067Z" stroke="black" stroke-width="2.22937"/>
<path d="M512.789 113.087C512.908 113.087 513.022 113.04 513.106 112.955C513.19 112.871 513.237 112.757 513.237 112.638C513.237 112.519 513.19 112.405 513.106 112.321C513.022 112.237 512.908 112.189 512.789 112.189C512.67 112.189 512.555 112.237 512.471 112.321C512.387 112.405 512.34 112.519 512.34 112.638C512.34 112.757 512.387 112.871 512.471 112.955C512.555 113.04 512.67 113.087 512.789 113.087Z" stroke="black" stroke-width="2.22937"/>
<path d="M514.917 129.813C515.036 129.813 515.151 129.765 515.235 129.681C515.319 129.597 515.366 129.483 515.366 129.364C515.366 129.245 515.319 129.131 515.235 129.047C515.151 128.963 515.036 128.915 514.917 128.915C514.798 128.915 514.684 128.963 514.6 129.047C514.516 129.131 514.469 129.245 514.469 129.364C514.469 129.483 514.516 129.597 514.6 129.681C514.684 129.765 514.798 129.813 514.917 129.813Z" stroke="black" stroke-width="2.22937"/>
<path d="M538.662 128.012C538.781 128.012 538.895 127.965 538.979 127.881C539.063 127.797 539.11 127.682 539.11 127.563C539.11 127.444 539.063 127.33 538.979 127.246C538.895 127.162 538.781 127.115 538.662 127.115C538.543 127.115 538.428 127.162 538.344 127.246C538.26 127.33 538.213 127.444 538.213 127.563C538.213 127.682 538.26 127.797 538.344 127.881C538.428 127.965 538.543 128.012 538.662 128.012Z" stroke="black" stroke-width="2.22937"/>
<path d="M524.246 145.109C524.365 145.109 524.479 145.061 524.563 144.977C524.647 144.893 524.694 144.779 524.694 144.66C524.694 144.541 524.647 144.427 524.563 144.343C524.479 144.258 524.365 144.211 524.246 144.211C524.127 144.211 524.012 144.258 523.928 144.343C523.844 144.427 523.797 144.541 523.797 144.66C523.797 144.779 523.844 144.893 523.928 144.977C524.012 145.061 524.127 145.109 524.246 145.109Z" stroke="black" stroke-width="2.22937"/>
<path d="M506.837 147.422C506.956 147.422 507.071 147.375 507.155 147.291C507.239 147.207 507.286 147.093 507.286 146.974C507.286 146.855 507.239 146.74 507.155 146.656C507.071 146.572 506.956 146.525 506.837 146.525C506.718 146.525 506.604 146.572 506.52 146.656C506.436 146.74 506.389 146.855 506.389 146.974C506.389 147.093 506.436 147.207 506.52 147.291C506.604 147.375 506.718 147.422 506.837 147.422Z" stroke="black" stroke-width="2.22937"/>
<path d="M554.029 160.191C554.148 160.191 554.262 160.144 554.346 160.06C554.43 159.976 554.478 159.861 554.478 159.742C554.478 159.623 554.43 159.509 554.346 159.425C554.262 159.341 554.148 159.294 554.029 159.294C553.91 159.294 553.796 159.341 553.712 159.425C553.627 159.509 553.58 159.623 553.58 159.742C553.58 159.861 553.627 159.976 553.712 160.06C553.796 160.144 553.91 160.191 554.029 160.191Z" stroke="black" stroke-width="2.22937"/>
<path d="M515.363 162.135C515.482 162.135 515.596 162.088 515.68 162.004C515.764 161.919 515.812 161.805 515.812 161.686C515.812 161.567 515.764 161.453 515.68 161.369C515.596 161.285 515.482 161.238 515.363 161.238C515.244 161.238 515.13 161.285 515.045 161.369C514.961 161.453 514.914 161.567 514.914 161.686C514.914 161.805 514.961 161.919 515.045 162.004C515.13 162.088 515.244 162.135 515.363 162.135Z" stroke="black" stroke-width="2.22937"/>
<path d="M529.644 175.812C529.763 175.812 529.877 175.765 529.961 175.681C530.046 175.596 530.093 175.482 530.093 175.363C530.093 175.244 530.046 175.13 529.961 175.046C529.877 174.962 529.763 174.915 529.644 174.915C529.525 174.915 529.411 174.962 529.327 175.046C529.243 175.13 529.195 175.244 529.195 175.363C529.195 175.482 529.243 175.596 529.327 175.681C529.411 175.765 529.525 175.812 529.644 175.812Z" stroke="black" stroke-width="2.22937"/>
<path d="M515.115 178.081C515.234 178.081 515.348 178.033 515.432 177.949C515.516 177.865 515.563 177.751 515.563 177.632C515.563 177.513 515.516 177.399 515.432 177.315C515.348 177.23 515.234 177.183 515.115 177.183C514.996 177.183 514.882 177.23 514.797 177.315C514.713 177.399 514.666 177.513 514.666 177.632C514.666 177.751 514.713 177.865 514.797 177.949C514.882 178.033 514.996 178.081 515.115 178.081Z" stroke="black" stroke-width="2.22937"/>
<path d="M538.632 196.657C538.751 196.657 538.865 196.61 538.95 196.526C539.034 196.441 539.081 196.327 539.081 196.208C539.081 196.089 539.034 195.975 538.95 195.891C538.865 195.807 538.751 195.76 538.632 195.76C538.513 195.76 538.399 195.807 538.315 195.891C538.231 195.975 538.184 196.089 538.184 196.208C538.184 196.327 538.231 196.441 538.315 196.526C538.399 196.61 538.513 196.657 538.632 196.657Z" stroke="black" stroke-width="2.22937"/>
<path d="M593.917 162.187C594.036 162.187 594.151 162.139 594.235 162.055C594.319 161.971 594.366 161.857 594.366 161.738C594.366 161.619 594.319 161.505 594.235 161.42C594.151 161.336 594.036 161.289 593.917 161.289C593.798 161.289 593.684 161.336 593.6 161.42C593.516 161.505 593.469 161.619 593.469 161.738C593.469 161.857 593.516 161.971 593.6 162.055C593.684 162.139 593.798 162.187 593.917 162.187Z" stroke="black" stroke-width="2.22937"/>
<path d="M554.089 143.834C554.208 143.834 554.323 143.787 554.407 143.703C554.491 143.619 554.538 143.505 554.538 143.386C554.538 143.267 554.491 143.153 554.407 143.068C554.323 142.984 554.208 142.937 554.089 142.937C553.97 142.937 553.856 142.984 553.772 143.068C553.688 143.153 553.641 143.267 553.641 143.386C553.641 143.505 553.688 143.619 553.772 143.703C553.856 143.787 553.97 143.834 554.089 143.834Z" stroke="black" stroke-width="2.22937"/>
<path d="M584.251 145.028C584.37 145.028 584.485 144.98 584.569 144.896C584.653 144.812 584.7 144.698 584.7 144.579C584.7 144.46 584.653 144.346 584.569 144.262C584.485 144.177 584.37 144.13 584.251 144.13C584.132 144.13 584.018 144.177 583.934 144.262C583.85 144.346 583.803 144.46 583.803 144.579C583.803 144.698 583.85 144.812 583.934 144.896C584.018 144.98 584.132 145.028 584.251 145.028Z" stroke="black" stroke-width="2.22937"/>
<path d="M600.845 147.235C600.964 147.235 601.078 147.188 601.163 147.104C601.247 147.02 601.294 146.905 601.294 146.786C601.294 146.667 601.247 146.553 601.163 146.469C601.078 146.385 600.964 146.338 600.845 146.338C600.726 146.338 600.612 146.385 600.528 146.469C600.444 146.553 600.396 146.667 600.396 146.786C600.396 146.905 600.444 147.02 600.528 147.104C600.612 147.188 600.726 147.235 600.845 147.235Z" stroke="black" stroke-width="2.22937"/>
<path d="M582.998 128.744C583.117 128.744 583.231 128.697 583.315 128.612C583.399 128.528 583.446 128.414 583.446 128.295C583.446 128.176 583.399 128.062 583.315 127.978C583.231 127.894 583.117 127.846 582.998 127.846C582.879 127.846 582.764 127.894 582.68 127.978C582.596 128.062 582.549 128.176 582.549 128.295C582.549 128.414 582.596 128.528 582.68 128.612C582.764 128.697 582.879 128.744 582.998 128.744Z" stroke="black" stroke-width="2.22937"/>
<path d="M593.886 129.46C594.005 129.46 594.119 129.413 594.204 129.329C594.288 129.244 594.335 129.13 594.335 129.011C594.335 128.892 594.288 128.778 594.204 128.694C594.119 128.61 594.005 128.562 593.886 128.562C593.767 128.562 593.653 128.61 593.569 128.694C593.485 128.778 593.438 128.892 593.438 129.011C593.438 129.13 593.485 129.244 593.569 129.329C593.653 129.413 593.767 129.46 593.886 129.46Z" stroke="black" stroke-width="2.22937"/>
<path d="M596.486 112.095C596.605 112.095 596.719 112.048 596.803 111.964C596.887 111.88 596.935 111.766 596.935 111.647C596.935 111.528 596.887 111.414 596.803 111.329C596.719 111.245 596.605 111.198 596.486 111.198C596.367 111.198 596.253 111.245 596.169 111.329C596.084 111.414 596.037 111.528 596.037 111.647C596.037 111.766 596.084 111.88 596.169 111.964C596.253 112.048 596.367 112.095 596.486 112.095Z" stroke="black" stroke-width="2.22937"/>
<path d="M571.384 87.8748C571.503 87.8748 571.617 87.8275 571.702 87.7433C571.786 87.6592 571.833 87.545 571.833 87.426C571.833 87.307 571.786 87.1929 571.702 87.1087C571.617 87.0246 571.503 86.9773 571.384 86.9773C571.265 86.9773 571.151 87.0246 571.067 87.1087C570.983 87.1929 570.936 87.307 570.936 87.426C570.936 87.545 570.983 87.6592 571.067 87.7433C571.151 87.8275 571.265 87.8748 571.384 87.8748Z" stroke="black" stroke-width="2.22937"/>
<path d="M555.797 176.952L555.039 176.526L555.797 175.15L556.525 176.526L555.797 176.952ZM553.558 175.237L552.73 174.286L553.558 173.96L555.118 174.286L553.558 175.237Z" stroke="black" stroke-width="2.22937"/>
<path d="M564.759 191.377L562.657 189.963L562.52 189.885L560.28 188.268L559.526 187.723L558.041 186.651L556.424 185.484L555.801 185.034L553.561 183.417L553.322 183.244L551.322 181.8L550.114 181.004L549.082 180.444L546.843 179.652L544.603 178.861L544.33 178.765L542.363 178.07L540.124 177.278L537.993 176.525L537.884 176.304L536.98 174.285L537.884 173.929L540.124 173.047L542.363 172.164L542.663 172.046L544.603 171.281L546.843 170.399L548.345 169.806L549.082 169.516L551.322 168.633L553.561 167.75L555.801 168.191L558.041 168.938L560.28 169.685L560.642 169.806L562.52 170.432L564.759 171.179L566.999 171.926L567.357 172.046L569.239 172.673L571.478 173.421L573.718 174.167L574.072 174.285L575.957 176.042L576.511 176.525L575.957 177.399L575.092 178.765L573.718 180.933L573.673 181.004L572.253 183.244L571.478 184.467L570.834 185.484L569.415 187.723L569.239 188.001L567.996 189.963L566.999 191.535L564.759 191.377ZM540.124 113.054L538.666 111.576L540.124 110.048L542.363 111.447L542.497 111.576L542.363 112.403L540.124 113.054Z" stroke="black" stroke-width="2.22937"/>
<path d="M569.243 203.637L568.978 203.4L567.003 201.624L566.487 201.16L564.763 199.611L563.995 198.92L562.524 197.598L561.504 196.681L560.284 195.752L558.56 194.441L558.045 194.07L555.805 192.453L555.458 192.202L553.565 190.836L552.356 189.962L551.326 189.219L549.254 187.722L549.086 187.602L546.847 185.984L545.83 185.483L544.607 184.985L542.367 184.193L540.128 183.402L539.678 183.243L537.888 182.611L535.649 181.819L533.409 181.028L533.361 181.004L531.169 180.044L529.107 178.764L528.93 178.655L526.69 177.257L525.516 176.524L524.45 175.318L523.646 174.285L522.211 172.115L522.164 172.045L520.683 169.806L519.971 168.729L519.202 167.566L517.732 165.343L517.721 165.326L516.877 163.087L517.732 162.219L519.971 162.821L520.96 163.087L522.211 163.423L524.45 164.025L526.69 164.627L528.93 164.871L531.169 164.759L533.409 164.646L535.649 164.534L537.888 164.421L540.128 164.308L542.367 164.196L544.607 164.083L546.847 163.635L549.086 163.306L549.643 163.087L551.326 162.294L553.565 161.541L555.805 161.953L558.045 162.545L559.814 163.087L560.284 163.203L562.524 163.432L564.763 163.66L567.003 163.852L569.243 164.044L571.482 164.236L573.722 164.428L575.962 164.62L578.201 164.812L580.441 165.004L580.674 165.326L581.984 167.566L582.68 169.044L583.039 169.806L584.841 172.045L584.92 172.106L587.16 173.836L587.741 174.285L589.399 175.565L590.641 176.524L591.639 178.726L591.668 178.764L591.791 181.004L591.896 183.243L592 185.483L592.104 187.722L592.208 189.962L592.312 192.202L591.639 192.563L589.399 194.121L589.038 194.441L587.16 195.583L585.354 196.681L584.92 196.945L582.68 198.306L581.67 198.92L580.441 199.668L578.201 201.029L577.986 201.16L575.962 202.391L574.301 203.4L573.722 203.752L571.482 205.113L569.243 203.637ZM537.888 121.335L536.572 120.534L535.649 119.972L533.409 118.63L532.748 118.294L531.169 117.446L528.93 116.371L528.208 116.055L526.69 115.399L524.45 114.455L522.931 113.815L522.211 112.487L521.719 111.576L522.211 111.253L524.45 109.784L525.133 109.336L526.69 108.315L528.548 107.096L528.93 106.846L531.169 105.337L531.625 104.857L533.409 103.118L533.886 102.617L535.649 100.769L536.022 100.378L537.888 98.4204L540.128 99.6354L540.894 100.378L542.367 101.805L543.206 102.617L544.607 103.974L545.519 104.857L546.847 106.143L547.831 107.096L549.086 108.312L550.144 109.336L551.326 110.481L552.456 111.576L551.959 113.815L551.398 116.055L551.326 116.342L550.837 118.294L550.276 120.534L549.086 122.023L546.847 122.244L544.607 122.253L542.367 122.262L540.128 122.271L537.888 121.335ZM578.201 114.97L577.004 113.815L576.5 111.576L578.173 109.336L578.201 109.31L578.243 109.336L580.441 110.391L582.114 111.576L581.162 113.815L580.441 114.613L578.201 114.97Z" stroke="black" stroke-width="2.22937"/>
<path d="M565.749 212.358L565.719 210.118L564.752 209.296L563.687 207.879L551.23 196.681L544.596 191.787L542.356 190.354L533.398 186.731L519.96 178.308L517.648 176.524L515.481 173.248L509.797 167.566L495.965 154.128L497.564 152.35L502.043 152.529L508.762 153.054L511.002 152.988L521.244 149.649L522.2 149.42L524.439 149.976L526.679 150.108L533.649 149.649L533.398 147.267L532.676 145.17L531.899 140.69L531.328 136.211L531.158 129.408L529.376 127.253L524.439 124.995L513.993 120.534L513.241 120.132L502.043 107.864L500.938 107.096L499.804 105.781L497.564 105.59M536.783 84.7002L542.356 88.5724L547.039 91.419L562.513 100.805L567.17 104.857L569.232 105.577L573.711 99.5791L575.951 98.8233L593.961 111.576L593.867 111.691L591.628 114.509L582.669 124.416L580.43 124.945L571.471 125.245L571.154 125.013L569.232 121.385L566.992 123.256L564.354 127.253L565.962 129.492L567.112 131.732L570.492 142.93L570.525 145.17L568.704 151.889L569.232 152.295L571.471 152.703L582.669 153.713L582.924 154.128L588.198 165.326L589.388 166.905L593.867 170.84L600.586 179.35L602.826 179.187L609.545 175.723" stroke="black" stroke-width="2.22937"/>
<path d="M538.919 212.359L539.539 210.119L540.125 208.002L540.158 207.88L540.778 205.64L541.397 203.401L542.017 201.161L542.364 199.906L542.552 198.921L542.364 198.765L540.974 196.682L540.125 196.041L537.885 195.081L536.994 194.442L535.645 193.745L533.561 192.203L533.406 192.108L531.166 192.088L529.732 192.203L528.927 192.313L526.687 192.646L524.447 193.115L522.208 193.797L520.742 194.442L520.122 196.682L519.968 197.238L519.503 198.921L518.883 201.161L518.633 202.065M593.875 161.082L596.115 160.983L596.377 160.848L598.354 159.398L600.594 158.674L600.721 158.608L602.834 157.032L605.05 156.369L605.073 156.354L607.313 154.662L609.168 154.129L609.553 153.898L611.792 152.286L613.24 151.89L614.032 151.425L616.271 149.906L617.246 149.65L616.271 149.166L614.256 147.41L614.032 147.286L611.792 146.154L609.864 145.171L609.553 145.012L607.313 143.87L605.472 142.931L605.073 142.728L602.834 141.586L601.08 140.691L600.594 140.444L598.354 139.357L596.678 140.691L596.115 141.523L595.16 142.931L593.875 144.826L593.642 145.171L593.224 147.41L593.211 149.65L593.199 151.89L593.187 154.129L593.174 156.369L593.551 158.608L593.733 160.848L593.875 161.082Z" stroke="black" stroke-width="2.22937"/>
<path d="M618.373 155.249L618.247 151.25L617.871 147.266L617.245 143.314L616.372 139.409L615.256 135.566L613.9 131.802L612.311 128.13L610.495 124.564L608.458 121.12L606.209 117.811L603.756 114.649L601.11 111.648L598.281 108.818L595.279 106.172L592.118 103.72L588.808 101.471L585.364 99.4339L581.799 97.6173L578.127 96.0282L574.362 94.6728L570.52 93.5565L566.615 92.6836L562.663 92.0577L558.679 91.6811L554.68 91.5554L550.68 91.6811L546.697 92.0577L542.745 92.6836L538.84 93.5565L534.997 94.6728L531.233 96.0282L527.56 97.6173L523.995 99.4339L520.551 101.471L517.242 103.72L514.08 106.172L511.079 108.818L508.249 111.648L505.603 114.649L503.151 117.811L500.902 121.12L498.865 124.564L497.048 128.13L495.459 131.802L494.104 135.566L492.987 139.409L492.115 143.314L491.489 147.266L491.112 151.25L490.986 155.249L491.112 159.248L491.489 163.232L492.115 167.184L492.987 171.089L494.104 174.931L495.459 178.696L497.048 182.368L498.865 185.933L500.902 189.377L503.151 192.687L505.603 195.849L508.249 198.85L511.079 201.679L514.08 204.325L517.242 206.778L520.551 209.027L523.995 211.064L527.56 212.88L531.233 214.469L534.997 215.825L538.84 216.941L542.745 217.814L546.697 218.44L550.68 218.817L554.68 218.942L558.679 218.817L562.663 218.44L566.615 217.814L570.52 216.941L574.362 215.825L578.127 214.469L581.799 212.88L585.364 211.064L588.808 209.027L592.118 206.778L595.279 204.325L598.281 201.679L601.11 198.85L603.756 195.849L606.209 192.687L608.458 189.377L610.495 185.933L612.311 182.368L613.9 178.696L615.256 174.931L616.372 171.089L617.245 167.184L617.871 163.232L618.247 159.248L618.373 155.249Z" stroke="black" stroke-width="2.22937" stroke-linecap="square"/>
<path d="M541.34 92.9666L554.68 82L568.02 92.9666" stroke="black" stroke-width="2.22937" stroke-linecap="square"/>
<path d="M491.369 148.178L489.713 145.376L488.694 145.274L487.178 145.745L485.65 148.178L485.892 155.949L485 167.121L486.911 171.974L489.713 172.878L492.388 170.522" stroke="black" stroke-width="2.22937" stroke-linecap="square"/>
<path d="M617.992 148.178L619.648 145.376L620.667 145.274L622.183 145.745L623.711 148.178L623.469 155.949L624.361 167.121L622.45 171.974L619.648 172.878L616.973 170.522" stroke="black" stroke-width="2.22937" stroke-linecap="square"/>
<path d="M682.343 88.3692C682.462 88.3692 682.576 88.3219 682.661 88.2377C682.745 88.1536 682.792 88.0394 682.792 87.9204C682.792 87.8014 682.745 87.6873 682.661 87.6031C682.576 87.519 682.462 87.4717 682.343 87.4717C682.224 87.4717 682.11 87.519 682.026 87.6031C681.942 87.6873 681.895 87.8014 681.895 87.9204C681.895 88.0394 681.942 88.1536 682.026 88.2377C682.11 88.3219 682.224 88.3692 682.343 88.3692Z" stroke="black" stroke-width="2.22937"/>
<path d="M699.925 112.032C700.044 112.032 700.158 111.984 700.243 111.9C700.327 111.816 700.374 111.702 700.374 111.583C700.374 111.464 700.327 111.35 700.243 111.266C700.158 111.182 700.044 111.134 699.925 111.134C699.806 111.134 699.692 111.182 699.608 111.266C699.524 111.35 699.477 111.464 699.477 111.583C699.477 111.702 699.524 111.816 699.608 111.9C699.692 111.984 699.806 112.032 699.925 112.032Z" stroke="black" stroke-width="2.22937"/>
<path d="M675.023 113.067C675.142 113.067 675.256 113.02 675.34 112.936C675.424 112.852 675.472 112.738 675.472 112.619C675.472 112.5 675.424 112.386 675.34 112.301C675.256 112.217 675.142 112.17 675.023 112.17C674.904 112.17 674.79 112.217 674.706 112.301C674.622 112.386 674.574 112.5 674.574 112.619C674.574 112.738 674.622 112.852 674.706 112.936C674.79 113.02 674.904 113.067 675.023 113.067Z" stroke="black" stroke-width="2.22937"/>
<path d="M658.605 113.087C658.724 113.087 658.838 113.04 658.922 112.955C659.006 112.871 659.054 112.757 659.054 112.638C659.054 112.519 659.006 112.405 658.922 112.321C658.838 112.237 658.724 112.189 658.605 112.189C658.486 112.189 658.372 112.237 658.288 112.321C658.204 112.405 658.156 112.519 658.156 112.638C658.156 112.757 658.204 112.871 658.288 112.955C658.372 113.04 658.486 113.087 658.605 113.087Z" stroke="black" stroke-width="2.22937"/>
<path d="M660.742 129.813C660.861 129.813 660.975 129.765 661.059 129.681C661.143 129.597 661.19 129.483 661.19 129.364C661.19 129.245 661.143 129.131 661.059 129.047C660.975 128.963 660.861 128.915 660.742 128.915C660.623 128.915 660.509 128.963 660.424 129.047C660.34 129.131 660.293 129.245 660.293 129.364C660.293 129.483 660.34 129.597 660.424 129.681C660.509 129.765 660.623 129.813 660.742 129.813Z" stroke="black" stroke-width="2.22937"/>
<path d="M684.482 128.012C684.601 128.012 684.715 127.965 684.799 127.881C684.883 127.797 684.931 127.682 684.931 127.563C684.931 127.444 684.883 127.33 684.799 127.246C684.715 127.162 684.601 127.115 684.482 127.115C684.363 127.115 684.249 127.162 684.165 127.246C684.08 127.33 684.033 127.444 684.033 127.563C684.033 127.682 684.08 127.797 684.165 127.881C684.249 127.965 684.363 128.012 684.482 128.012Z" stroke="black" stroke-width="2.22937"/>
<path d="M652.66 147.422C652.779 147.422 652.893 147.375 652.977 147.291C653.061 147.207 653.108 147.093 653.108 146.974C653.108 146.855 653.061 146.74 652.977 146.656C652.893 146.572 652.779 146.525 652.66 146.525C652.541 146.525 652.427 146.572 652.342 146.656C652.258 146.74 652.211 146.855 652.211 146.974C652.211 147.093 652.258 147.207 652.342 147.291C652.427 147.375 652.541 147.422 652.66 147.422Z" stroke="black" stroke-width="2.22937"/>
<path d="M699.847 160.191C699.966 160.191 700.08 160.144 700.164 160.06C700.249 159.976 700.296 159.861 700.296 159.742C700.296 159.623 700.249 159.509 700.164 159.425C700.08 159.341 699.966 159.294 699.847 159.294C699.728 159.294 699.614 159.341 699.53 159.425C699.446 159.509 699.398 159.623 699.398 159.742C699.398 159.861 699.446 159.976 699.53 160.06C699.614 160.144 699.728 160.191 699.847 160.191Z" stroke="black" stroke-width="2.22937"/>
<path d="M661.187 162.135C661.306 162.135 661.42 162.088 661.504 162.004C661.588 161.919 661.636 161.805 661.636 161.686C661.636 161.567 661.588 161.453 661.504 161.369C661.42 161.285 661.306 161.238 661.187 161.238C661.068 161.238 660.954 161.285 660.87 161.369C660.786 161.453 660.738 161.567 660.738 161.686C660.738 161.805 660.786 161.919 660.87 162.004C660.954 162.088 661.068 162.135 661.187 162.135Z" stroke="black" stroke-width="2.22937"/>
<path d="M686.746 112.384C686.865 112.384 686.979 112.337 687.063 112.252C687.147 112.168 687.194 112.054 687.194 111.935C687.194 111.816 687.147 111.702 687.063 111.618C686.979 111.534 686.865 111.486 686.746 111.486C686.627 111.486 686.512 111.534 686.428 111.618C686.344 111.702 686.297 111.816 686.297 111.935C686.297 112.054 686.344 112.168 686.428 112.252C686.512 112.337 686.627 112.384 686.746 112.384Z" stroke="black" stroke-width="2.22937"/>
<path d="M699.765 175.381C699.884 175.381 699.998 175.334 700.082 175.25C700.167 175.166 700.214 175.051 700.214 174.932C700.214 174.813 700.167 174.699 700.082 174.615C699.998 174.531 699.884 174.484 699.765 174.484C699.646 174.484 699.532 174.531 699.448 174.615C699.364 174.699 699.316 174.813 699.316 174.932C699.316 175.051 699.364 175.166 699.448 175.25C699.532 175.334 699.646 175.381 699.765 175.381Z" stroke="black" stroke-width="2.22937"/>
<path d="M675.459 175.812C675.578 175.812 675.692 175.765 675.776 175.681C675.86 175.596 675.907 175.482 675.907 175.363C675.907 175.244 675.86 175.13 675.776 175.046C675.692 174.962 675.578 174.915 675.459 174.915C675.339 174.915 675.225 174.962 675.141 175.046C675.057 175.13 675.01 175.244 675.01 175.363C675.01 175.482 675.057 175.596 675.141 175.681C675.225 175.765 675.339 175.812 675.459 175.812Z" stroke="black" stroke-width="2.22937"/>
<path d="M660.937 178.081C661.056 178.081 661.17 178.033 661.254 177.949C661.338 177.865 661.386 177.751 661.386 177.632C661.386 177.513 661.338 177.399 661.254 177.315C661.17 177.23 661.056 177.183 660.937 177.183C660.818 177.183 660.704 177.23 660.62 177.315C660.536 177.399 660.488 177.513 660.488 177.632C660.488 177.751 660.536 177.865 660.62 177.949C660.704 178.033 660.818 178.081 660.937 178.081Z" stroke="black" stroke-width="2.22937"/>
<path d="M684.451 196.657C684.57 196.657 684.684 196.61 684.768 196.526C684.852 196.441 684.899 196.327 684.899 196.208C684.899 196.089 684.852 195.975 684.768 195.891C684.684 195.807 684.57 195.76 684.451 195.76C684.332 195.76 684.218 195.807 684.133 195.891C684.049 195.975 684.002 196.089 684.002 196.208C684.002 196.327 684.049 196.441 684.133 196.526C684.218 196.61 684.332 196.657 684.451 196.657Z" stroke="black" stroke-width="2.22937"/>
<path d="M699.939 127.611C700.058 127.611 700.172 127.563 700.256 127.479C700.34 127.395 700.388 127.281 700.388 127.162C700.388 127.043 700.34 126.929 700.256 126.845C700.172 126.76 700.058 126.713 699.939 126.713C699.82 126.713 699.706 126.76 699.622 126.845C699.538 126.929 699.49 127.043 699.49 127.162C699.49 127.281 699.538 127.395 699.622 127.479C699.706 127.563 699.82 127.611 699.939 127.611Z" stroke="black" stroke-width="2.22937"/>
<path d="M714.542 196.514C714.661 196.514 714.776 196.467 714.86 196.383C714.944 196.299 714.991 196.185 714.991 196.066C714.991 195.947 714.944 195.833 714.86 195.748C714.776 195.664 714.661 195.617 714.542 195.617C714.423 195.617 714.309 195.664 714.225 195.748C714.141 195.833 714.094 195.947 714.094 196.066C714.094 196.185 714.141 196.299 714.225 196.383C714.309 196.467 714.423 196.514 714.542 196.514Z" stroke="black" stroke-width="2.22937"/>
<path d="M724.853 175.829C724.972 175.829 725.086 175.782 725.17 175.698C725.254 175.614 725.302 175.499 725.302 175.38C725.302 175.261 725.254 175.147 725.17 175.063C725.086 174.979 724.972 174.932 724.853 174.932C724.734 174.932 724.62 174.979 724.536 175.063C724.452 175.147 724.404 175.261 724.404 175.38C724.404 175.499 724.452 175.614 724.536 175.698C724.62 175.782 724.734 175.829 724.853 175.829Z" stroke="black" stroke-width="2.22937"/>
<path d="M738.052 178.036C738.171 178.036 738.285 177.989 738.37 177.905C738.454 177.821 738.501 177.706 738.501 177.587C738.501 177.468 738.454 177.354 738.37 177.27C738.285 177.186 738.171 177.139 738.052 177.139C737.933 177.139 737.819 177.186 737.735 177.27C737.651 177.354 737.604 177.468 737.604 177.587C737.604 177.706 737.651 177.821 737.735 177.905C737.819 177.989 737.933 178.036 738.052 178.036Z" stroke="black" stroke-width="2.22937"/>
<path d="M739.736 162.187C739.855 162.187 739.969 162.139 740.053 162.055C740.137 161.971 740.185 161.857 740.185 161.738C740.185 161.619 740.137 161.505 740.053 161.42C739.969 161.336 739.855 161.289 739.736 161.289C739.617 161.289 739.503 161.336 739.419 161.42C739.334 161.505 739.287 161.619 739.287 161.738C739.287 161.857 739.334 161.971 739.419 162.055C739.503 162.139 739.617 162.187 739.736 162.187Z" stroke="black" stroke-width="2.22937"/>
<path d="M713.763 112.128C713.882 112.128 713.996 112.081 714.08 111.997C714.165 111.912 714.212 111.798 714.212 111.679C714.212 111.56 714.165 111.446 714.08 111.362C713.996 111.278 713.882 111.23 713.763 111.23C713.644 111.23 713.53 111.278 713.446 111.362C713.362 111.446 713.314 111.56 713.314 111.679C713.314 111.798 713.362 111.912 713.446 111.997C713.53 112.081 713.644 112.128 713.763 112.128Z" stroke="black" stroke-width="2.22937"/>
<path d="M699.908 143.834C700.027 143.834 700.141 143.787 700.225 143.703C700.309 143.619 700.356 143.505 700.356 143.386C700.356 143.267 700.309 143.153 700.225 143.068C700.141 142.984 700.027 142.937 699.908 142.937C699.789 142.937 699.675 142.984 699.59 143.068C699.506 143.153 699.459 143.267 699.459 143.386C699.459 143.505 699.506 143.619 699.59 143.703C699.675 143.787 699.789 143.834 699.908 143.834Z" stroke="black" stroke-width="2.22937"/>
<path d="M730.074 145.028C730.193 145.028 730.307 144.98 730.391 144.896C730.475 144.812 730.522 144.698 730.522 144.579C730.522 144.46 730.475 144.346 730.391 144.262C730.307 144.177 730.193 144.13 730.074 144.13C729.955 144.13 729.841 144.177 729.756 144.262C729.672 144.346 729.625 144.46 729.625 144.579C729.625 144.698 729.672 144.812 729.756 144.896C729.841 144.98 729.955 145.028 730.074 145.028Z" stroke="black" stroke-width="2.22937"/>
<path d="M746.669 147.235C746.788 147.235 746.903 147.188 746.987 147.104C747.071 147.02 747.118 146.905 747.118 146.786C747.118 146.667 747.071 146.553 746.987 146.469C746.903 146.385 746.788 146.338 746.669 146.338C746.55 146.338 746.436 146.385 746.352 146.469C746.268 146.553 746.221 146.667 746.221 146.786C746.221 146.905 746.268 147.02 746.352 147.104C746.436 147.188 746.55 147.235 746.669 147.235Z" stroke="black" stroke-width="2.22937"/>
<path d="M728.816 128.744C728.935 128.744 729.049 128.697 729.133 128.612C729.217 128.528 729.265 128.414 729.265 128.295C729.265 128.176 729.217 128.062 729.133 127.978C729.049 127.894 728.935 127.846 728.816 127.846C728.697 127.846 728.583 127.894 728.499 127.978C728.414 128.062 728.367 128.176 728.367 128.295C728.367 128.414 728.414 128.528 728.499 128.612C728.583 128.697 728.697 128.744 728.816 128.744Z" stroke="black" stroke-width="2.22937"/>
<path d="M739.71 129.46C739.829 129.46 739.944 129.413 740.028 129.329C740.112 129.244 740.159 129.13 740.159 129.011C740.159 128.892 740.112 128.778 740.028 128.694C739.944 128.61 739.829 128.562 739.71 128.562C739.591 128.562 739.477 128.61 739.393 128.694C739.309 128.778 739.262 128.892 739.262 129.011C739.262 129.13 739.309 129.244 739.393 129.329C739.477 129.413 739.591 129.46 739.71 129.46Z" stroke="black" stroke-width="2.22937"/>
<path d="M715.353 127.974C715.472 127.974 715.586 127.927 715.67 127.843C715.754 127.759 715.802 127.644 715.802 127.525C715.802 127.406 715.754 127.292 715.67 127.208C715.586 127.124 715.472 127.077 715.353 127.077C715.234 127.077 715.12 127.124 715.036 127.208C714.952 127.292 714.904 127.406 714.904 127.525C714.904 127.644 714.952 127.759 715.036 127.843C715.12 127.927 715.234 127.974 715.353 127.974Z" stroke="black" stroke-width="2.22937"/>
<path d="M725.294 112.582C725.413 112.582 725.528 112.535 725.612 112.451C725.696 112.366 725.743 112.252 725.743 112.133C725.743 112.014 725.696 111.9 725.612 111.816C725.528 111.732 725.413 111.685 725.294 111.685C725.175 111.685 725.061 111.732 724.977 111.816C724.893 111.9 724.846 112.014 724.846 112.133C724.846 112.252 724.893 112.366 724.977 112.451C725.061 112.535 725.175 112.582 725.294 112.582Z" stroke="black" stroke-width="2.22937"/>
<path d="M742.31 112.095C742.429 112.095 742.543 112.048 742.627 111.964C742.712 111.88 742.759 111.766 742.759 111.647C742.759 111.528 742.712 111.414 742.627 111.329C742.543 111.245 742.429 111.198 742.31 111.198C742.191 111.198 742.077 111.245 741.993 111.329C741.909 111.414 741.861 111.528 741.861 111.647C741.861 111.766 741.909 111.88 741.993 111.964C742.077 112.048 742.191 112.095 742.31 112.095Z" stroke="black" stroke-width="2.22937"/>
<path d="M717.199 87.8748C717.318 87.8748 717.432 87.8275 717.516 87.7433C717.6 87.6592 717.647 87.545 717.647 87.426C717.647 87.307 717.6 87.1929 717.516 87.1087C717.432 87.0246 717.318 86.9773 717.199 86.9773C717.08 86.9773 716.966 87.0246 716.881 87.1087C716.797 87.1929 716.75 87.307 716.75 87.426C716.75 87.545 716.797 87.6592 716.881 87.7433C716.966 87.8275 717.08 87.8748 717.199 87.8748Z" stroke="black" stroke-width="2.22937"/>
<path d="M661.302 163.648L660.388 163.085L659.063 162.253L657.089 160.846L659.063 159.105L660.164 158.606L661.302 157.857L663.125 156.366L663.542 156.025L663.746 156.366L663.661 158.606L663.542 159.054L662.957 160.846L661.979 163.085L661.302 163.648ZM670.261 136.304L669.152 136.21L668.021 136.113L665.782 135.923L663.542 135.217L661.302 134.009L661.231 133.97L659.063 133.092L656.823 133.882L656.67 133.97L654.584 134.841L652.656 133.97L653.386 131.731L654.115 129.491L654.584 128.052L654.844 127.251L655.573 125.012L656.823 123.147L659.063 124.382L661.302 124.908L663.542 124.483L665.782 124.057L668.021 122.904L668.121 122.772L669.285 120.533L670.261 118.656L670.45 118.293L671.614 116.053L672.5 114.347L672.778 113.814L674.74 112.043L675.213 111.574L676.98 110.51L678.873 109.335L679.219 109.119L681.459 107.729L682.479 107.095L683.698 106.338L685.938 105.555L687.883 107.095L688.178 107.328L690.417 109.101L690.712 109.335L692.657 110.875L693.54 111.574L693.424 113.814L693.063 116.053L692.703 118.293L692.657 118.347L690.417 118.724L688.178 118.715L685.938 118.705L684.982 118.293L683.698 117.702L681.459 116.611L680.313 116.053L679.219 115.521L676.98 114.533L675.682 116.053L675.559 118.293L675.436 120.533L675.313 122.772L675.189 125.012L675.066 127.251L674.74 128.304L674.385 129.491L673.229 131.731L672.5 133.143L671.819 133.97L670.315 136.21L670.261 136.304Z" stroke="black" stroke-width="2.22937"/>
<path d="M643.396 109.668L643.504 109.336L644.234 107.097L645.636 105.795L647.875 106.874L648.153 107.097L650.115 108.376L651.587 109.336L652.355 109.837L654.594 111.239L655.02 111.576L656.834 112.759L658.799 113.816L659.073 113.98L659.304 113.816L661.313 112.33L662.155 111.576L663.553 110.791L665.792 109.534L666.144 109.336L668.032 108.277L670.134 107.097L670.272 107.019L672.511 105.762L674.123 104.857L674.751 104.505L676.99 103.248L678.037 102.618L679.23 101.915L681.47 100.524L681.705 100.378L683.709 99.1333L685.949 100.026L686.394 100.378L688.188 101.799L689.222 102.618L690.428 103.572L692.051 104.857L692.668 105.346L694.879 107.097L694.907 107.119L697.147 108.764L698.477 109.336L699.386 109.897L701.407 111.576L700.771 113.816L700.127 116.055L699.484 118.295L699.386 118.636L699.081 120.534L698.72 122.774L697.618 125.014L697.147 125.28L694.907 125.269L692.668 125.259L690.428 125.249L688.188 125.24L685.949 125.23L685.027 125.014L683.709 124.683L682.97 125.014L682.013 127.253L681.47 128.55L681.088 129.493L680.056 131.733L679.23 133.223L678.861 133.972L678.61 136.212L678.834 138.451L679.172 140.691L679.23 141.075L679.51 142.931L679.72 145.17L679.749 147.41L679.23 149.45L678.855 149.649L676.99 149.798L674.751 149.977L672.511 150.156L670.989 151.889L670.272 153.229L670.034 154.129L669.441 156.368L668.849 158.608L668.256 160.847L668.032 161.696L667.664 163.087L667.071 165.327L665.792 167.36L665.516 167.566L663.553 168.687L661.591 169.806L661.313 169.965L661.028 169.806L659.073 168.696L657.489 167.566L656.834 167.099L654.594 165.502L654.348 165.327L652.355 163.905L651.207 163.087L650.115 162.308L648.066 160.847L647.875 160.712L645.636 159.115L644.925 158.608L643.396 157.518L641.784 156.368L641.157 155.921L638.917 155.391L638.475 155.926M645.636 149.751L647.875 150.119L650.115 150.488L652.355 150.856L654.594 151.14L656.834 149.971L657.227 149.649L659.073 148.139L659.965 147.41L660.982 145.17L659.073 144.141L656.834 142.933L656.83 142.931L654.594 142.148L652.844 142.931L652.355 143.144L650.115 144.179L647.973 145.17L647.875 145.215L645.636 146.251L643.396 147.287L643.13 147.41L643.396 148.112L645.019 149.649L645.636 149.751Z" stroke="black" stroke-width="2.22937"/>
<path d="M666.781 84.7002L666.419 86.9398L666.057 89.1794L665.785 90.8628L665.695 91.419L665.332 93.6586L665.785 94.3045L667.669 95.8983L668.024 96.1253L670.264 97.5567L671.173 98.1379L672.503 98.3827L672.942 98.1379L674.743 97.142L676.959 95.8983L676.983 95.8847L679.222 94.6275L680.869 93.6586L681.462 93.3175L683.701 92.721L684.886 93.6586L685.941 94.4944L687.714 95.8983L688.181 96.2677L690.42 96.4603L691.931 95.8983L692.66 95.6272L694.899 94.7941L697.139 93.961L697.952 93.6586L699.379 93.1279L701.618 92.2948L703.858 91.4617L703.973 91.419L706.097 90.6286L708.337 89.7955L709.993 89.1794L710.577 88.8279L712.816 87.5341L713.897 86.9398L712.816 85.5134L711.253 84.7002M723.309 84.7002L722.576 86.9398L721.775 87.9161L719.535 87.8966L717.333 89.1794L717.296 89.2151L716.852 91.419L716.539 93.6586L716.31 95.8983L716.136 98.1379L715.998 100.377L715.883 102.617L715.647 104.857L715.411 107.096L715.175 109.336L715.056 110.468L714.892 111.576L713.596 113.815L712.816 115.022L712.096 116.055L710.577 118.232L710.533 118.294L708.97 120.534L708.337 121.441L707.408 122.774L706.097 124.651L705.845 125.013L704.282 127.253L703.858 128.801L703.671 129.492L703.064 131.732L702.457 133.972L701.85 136.211L701.618 137.067L701.121 138.451L700.32 140.69L699.765 142.93L700.015 145.17L700.049 147.409L700.083 149.649L700.117 151.889L700.151 154.128L700.184 156.368L700.218 158.607L700.325 160.847L701.618 161.699L702.714 163.087L703.858 164.534L704.484 165.326L706.097 167.368L706.254 167.566L708.024 169.805L708.337 170.201L709.794 172.045L710.577 173.035L711.565 174.285L712.624 176.524L712.816 177.232L713.233 178.764L713.842 181.003L714.451 183.243L715.056 185.47L715.059 185.483L715.668 187.722L716.277 189.962L717.213 192.202L717.296 192.326L719.535 193.835L721.203 194.441L721.775 194.906L723.449 196.681L724.014 197.63L724.784 198.92L726.119 201.16L726.254 201.386L727.454 203.4L728.494 205.143L728.679 205.454M679.222 188.785L681.462 189.903L683.171 187.722L683.701 186.789L684.444 185.483L685.718 183.243L685.941 182.85L686.991 181.003L688.181 178.912L688.265 178.764L689.539 176.524L690.42 175.012L690.844 174.285L692.204 172.045L692.66 171.295L693.565 169.805L694.899 167.608L694.925 167.566L696.286 165.326L697.139 163.922L697.646 163.087L698.668 160.847L697.139 160.113L694.899 160.291L692.66 160.47L690.42 160.649L688.181 160.827L687.934 160.847L685.941 161.006L683.701 161.185L681.462 161.363L679.222 161.542L676.983 161.721L674.743 161.899L673.378 163.087L672.503 164.334L672.241 165.326L671.649 167.566L671.056 169.805L670.264 170.978L668.724 172.045L668.024 172.444L665.785 173.722L664.799 174.285L663.545 175.001L661.305 176.279L659.066 175.603L656.826 176.101L656.667 176.524L655.828 178.764L654.988 181.003L654.586 182.075L654.148 183.243L654.586 184.094L656.826 184.25L659.066 183.943L661.305 183.636L663.545 183.33L664.176 183.243L665.785 183.094L668.024 183.083L668.339 183.243L670.264 184.39L672.503 185.36L672.744 185.483L674.743 186.502L676.983 187.643L677.138 187.722L679.222 188.785ZM728.494 133.14L727.535 131.732L726.254 129.85L726.011 129.492L725.637 127.253L726.254 126.384L727.382 125.013L728.494 123.92L730.733 123.338L732.902 122.774L732.973 122.755L733.035 122.774L735.212 124.146L736.266 125.013L737.452 125.99L738.986 127.253L739.692 128.234L741.145 127.253L741.931 126.304L742.731 127.253L742.658 129.492L741.931 130.334L739.692 130.349L737.452 130.753L735.212 131.722L735.189 131.732L732.973 132.691L730.733 133.66L728.494 133.14Z" stroke="black" stroke-width="2.22937"/>
<path d="M737.457 179.674L739.696 180.391L741.936 180.836L742.975 178.764L744.099 176.525L744.175 176.372L745.024 174.285L745.754 172.045L746.409 169.806L746.415 169.786L747.064 167.566L747.719 165.326L748.375 163.087L748.655 162.129L749.03 160.847L749.685 158.608L749.905 156.368L748.655 155.371L746.947 154.128L746.415 153.741L744.175 152.05L744.048 151.889L742.647 149.649L741.936 148.511L741.247 147.41L739.696 146.232L738.62 145.17L737.457 144.644L735.217 143.632L733.666 142.93L732.977 142.619L730.738 142.419L728.548 140.691L728.498 140.657L726.997 138.451L726.259 137.367L725.472 136.212L724.019 134.077L723.948 133.972L722.423 131.732L721.779 130.787L720.899 129.493L720.101 127.253L721.693 125.013L721.779 124.892L723.285 122.774L724.019 121.741L724.877 120.534L726.259 118.59L726.843 118.295L728.498 117.618L730.738 117.036L732.977 116.453L734.508 116.055L735.217 115.87L737.457 115.288L739.696 115.049L741.936 115.726L743.418 113.815L744.175 112.877L745.193 111.576L746.415 110.014L746.945 109.336L746.415 107.505L745.294 107.097L744.175 106.883L741.936 106.455L739.696 106.027L737.457 105.587L735.217 105.09L734.57 104.857L732.977 104.281L730.738 103.475L728.498 102.667L728.362 102.617L726.259 101.859L724.019 101.051L722.154 100.378L721.779 100.243L721.699 100.378L721.085 102.617L720.849 104.857L720.613 107.097L720.377 109.336L720.141 111.576L719.54 112.77L719.003 113.815L717.698 116.055L717.3 116.737L716.392 118.295L715.086 120.534L715.061 120.579L713.586 122.774L712.821 123.885L712.033 125.013L710.581 127.094L710.47 127.253L709.797 129.493L709.191 131.732L708.819 133.972L710.581 135.974L710.982 136.212L712.821 137.3L714.766 138.451L715.061 138.626L717.3 139.951L718.55 140.691L719.54 141.277L721.779 142.603L722.333 142.93L724.019 144.509L724.775 145.17L724.895 147.41L725.487 149.649L726.111 151.889L726.259 152.417L726.739 154.128L727.434 156.368L728.22 158.608L728.498 159.339L729.259 160.847L730.388 163.087L730.738 163.782L731.517 165.326L732.646 167.566L732.977 168.89L733.157 169.806L733.507 172.045L733.858 174.285L734.209 176.525L735.217 177.951L735.852 178.764L737.457 179.674ZM676.987 175.654L677.743 174.285L676.987 173.644L675.92 174.285L676.987 175.654Z" stroke="black" stroke-width="2.22937"/>
<path d="M764.194 155.249L764.068 151.25L763.691 147.266L763.065 143.314L762.192 139.409L761.076 135.566L759.721 131.802L758.132 128.13L756.315 124.564L754.278 121.12L752.029 117.811L749.577 114.649L746.931 111.648L744.101 108.818L741.1 106.172L737.938 103.72L734.629 101.471L731.185 99.4339L727.619 97.6173L723.947 96.0282L720.182 94.6728L716.34 93.5565L712.435 92.6836L708.483 92.0577L704.499 91.6811L700.5 91.5554L696.501 91.6811L692.517 92.0577L688.565 92.6836L684.66 93.5565L680.818 94.6728L677.053 96.0282L673.381 97.6173L669.816 99.4339L666.371 101.471L663.062 103.72L659.9 106.172L656.899 108.818L654.07 111.648L651.423 114.649L648.971 117.811L646.722 121.12L644.685 124.564L642.869 128.13L641.279 131.802L639.924 135.566L638.808 139.409L637.935 143.314L637.309 147.266L636.932 151.25L636.807 155.249L636.932 159.248L637.309 163.232L637.935 167.184L638.808 171.089L639.924 174.931L641.279 178.696L642.869 182.368L644.685 185.933L646.722 189.377L648.971 192.687L651.423 195.849L654.07 198.85L656.899 201.679L659.9 204.325L663.062 206.778L666.371 209.027L669.816 211.064L673.381 212.88L677.053 214.469L680.818 215.825L684.66 216.941L688.565 217.814L692.517 218.44L696.501 218.817L700.5 218.942L704.499 218.817L708.483 218.44L712.435 217.814L716.34 216.941L720.182 215.825L723.947 214.469L727.619 212.88L731.185 211.064L734.629 209.027L737.938 206.778L741.1 204.325L744.101 201.679L746.931 198.85L749.577 195.849L752.029 192.687L754.278 189.377L756.315 185.933L758.132 182.368L759.721 178.696L761.076 174.931L762.192 171.089L763.065 167.184L763.691 163.232L764.068 159.248L764.194 155.249Z" stroke="black" stroke-width="2.22937" stroke-linecap="square"/>
<path d="M687.164 92.9666L700.504 82L713.844 92.9666" stroke="black" stroke-width="2.22937" stroke-linecap="square"/>
<path d="M637.194 148.178L635.538 145.376L634.518 145.274L633.003 145.745L631.474 148.178L631.716 155.949L630.824 167.121L632.735 171.974L635.538 172.878L638.213 170.522" stroke="black" stroke-width="2.22937" stroke-linecap="square"/>
<path d="M763.806 148.178L765.462 145.376L766.481 145.274L767.997 145.745L769.526 148.178L769.284 155.949L770.176 167.121L768.265 171.974L765.462 172.878L762.787 170.522" stroke="black" stroke-width="2.22937" stroke-linecap="square"/>
<path d="M828.167 88.3696C828.286 88.3696 828.401 88.3224 828.485 88.2382C828.569 88.1541 828.616 88.0399 828.616 87.9209C828.616 87.8019 828.569 87.6877 828.485 87.6036C828.401 87.5195 828.286 87.4722 828.167 87.4722C828.048 87.4722 827.934 87.5195 827.85 87.6036C827.766 87.6877 827.719 87.8019 827.719 87.9209C827.719 88.0399 827.766 88.1541 827.85 88.2382C827.934 88.3224 828.048 88.3696 828.167 88.3696Z" stroke="black" stroke-width="2.22937"/>
<path d="M820.847 113.068C820.966 113.068 821.08 113.021 821.164 112.936C821.249 112.852 821.296 112.738 821.296 112.619C821.296 112.5 821.249 112.386 821.164 112.302C821.08 112.218 820.966 112.17 820.847 112.17C820.728 112.17 820.614 112.218 820.53 112.302C820.446 112.386 820.398 112.5 820.398 112.619C820.398 112.738 820.446 112.852 820.53 112.936C820.614 113.021 820.728 113.068 820.847 113.068Z" stroke="black" stroke-width="2.22937"/>
<path d="M804.427 113.088C804.546 113.088 804.66 113.04 804.745 112.956C804.829 112.872 804.876 112.758 804.876 112.639C804.876 112.52 804.829 112.406 804.745 112.322C804.66 112.237 804.546 112.19 804.427 112.19C804.308 112.19 804.194 112.237 804.11 112.322C804.026 112.406 803.979 112.52 803.979 112.639C803.979 112.758 804.026 112.872 804.11 112.956C804.194 113.04 804.308 113.088 804.427 113.088Z" stroke="black" stroke-width="2.22937"/>
<path d="M817.412 128.992C817.531 128.992 817.645 128.945 817.729 128.861C817.813 128.776 817.86 128.662 817.86 128.543C817.86 128.424 817.813 128.31 817.729 128.226C817.645 128.142 817.531 128.094 817.412 128.094C817.293 128.094 817.178 128.142 817.094 128.226C817.01 128.31 816.963 128.424 816.963 128.543C816.963 128.662 817.01 128.776 817.094 128.861C817.178 128.945 817.293 128.992 817.412 128.992Z" stroke="black" stroke-width="2.22937"/>
<path d="M806.562 129.813C806.681 129.813 806.795 129.766 806.879 129.682C806.963 129.598 807.011 129.484 807.011 129.365C807.011 129.246 806.963 129.131 806.879 129.047C806.795 128.963 806.681 128.916 806.562 128.916C806.443 128.916 806.329 128.963 806.245 129.047C806.161 129.131 806.113 129.246 806.113 129.365C806.113 129.484 806.161 129.598 806.245 129.682C806.329 129.766 806.443 129.813 806.562 129.813Z" stroke="black" stroke-width="2.22937"/>
<path d="M830.296 128.013C830.415 128.013 830.53 127.966 830.614 127.882C830.698 127.797 830.745 127.683 830.745 127.564C830.745 127.445 830.698 127.331 830.614 127.247C830.53 127.163 830.415 127.115 830.296 127.115C830.177 127.115 830.063 127.163 829.979 127.247C829.895 127.331 829.848 127.445 829.848 127.564C829.848 127.683 829.895 127.797 829.979 127.882C830.063 127.966 830.177 128.013 830.296 128.013Z" stroke="black" stroke-width="2.22937"/>
<path d="M832.564 112.384C832.683 112.384 832.797 112.337 832.881 112.253C832.965 112.169 833.013 112.055 833.013 111.936C833.013 111.817 832.965 111.702 832.881 111.618C832.797 111.534 832.683 111.487 832.564 111.487C832.445 111.487 832.331 111.534 832.247 111.618C832.163 111.702 832.115 111.817 832.115 111.936C832.115 112.055 832.163 112.169 832.247 112.253C832.331 112.337 832.445 112.384 832.564 112.384Z" stroke="black" stroke-width="2.22937"/>
<path d="M821.283 175.813C821.402 175.813 821.516 175.765 821.6 175.681C821.684 175.597 821.731 175.483 821.731 175.364C821.731 175.245 821.684 175.131 821.6 175.047C821.516 174.963 821.402 174.915 821.283 174.915C821.164 174.915 821.05 174.963 820.965 175.047C820.881 175.131 820.834 175.245 820.834 175.364C820.834 175.483 820.881 175.597 820.965 175.681C821.05 175.765 821.164 175.813 821.283 175.813Z" stroke="black" stroke-width="2.22937"/>
<path d="M830.271 196.657C830.39 196.657 830.504 196.61 830.588 196.526C830.672 196.442 830.72 196.328 830.72 196.209C830.72 196.09 830.672 195.976 830.588 195.891C830.504 195.807 830.39 195.76 830.271 195.76C830.152 195.76 830.038 195.807 829.954 195.891C829.87 195.976 829.822 196.09 829.822 196.209C829.822 196.328 829.87 196.442 829.954 196.526C830.038 196.61 830.152 196.657 830.271 196.657Z" stroke="black" stroke-width="2.22937"/>
<path d="M845.757 127.611C845.876 127.611 845.99 127.564 846.075 127.48C846.159 127.396 846.206 127.281 846.206 127.162C846.206 127.043 846.159 126.929 846.075 126.845C845.99 126.761 845.876 126.714 845.757 126.714C845.638 126.714 845.524 126.761 845.44 126.845C845.356 126.929 845.309 127.043 845.309 127.162C845.309 127.281 845.356 127.396 845.44 127.48C845.524 127.564 845.638 127.611 845.757 127.611Z" stroke="black" stroke-width="2.22937"/>
<path d="M860.363 196.515C860.482 196.515 860.596 196.468 860.68 196.383C860.764 196.299 860.812 196.185 860.812 196.066C860.812 195.947 860.764 195.833 860.68 195.749C860.596 195.665 860.482 195.617 860.363 195.617C860.244 195.617 860.13 195.665 860.045 195.749C859.961 195.833 859.914 195.947 859.914 196.066C859.914 196.185 859.961 196.299 860.045 196.383C860.13 196.468 860.244 196.515 860.363 196.515Z" stroke="black" stroke-width="2.22937"/>
<path d="M870.677 175.83C870.796 175.83 870.91 175.782 870.995 175.698C871.079 175.614 871.126 175.5 871.126 175.381C871.126 175.262 871.079 175.148 870.995 175.064C870.91 174.979 870.796 174.932 870.677 174.932C870.558 174.932 870.444 174.979 870.36 175.064C870.276 175.148 870.229 175.262 870.229 175.381C870.229 175.5 870.276 175.614 870.36 175.698C870.444 175.782 870.558 175.83 870.677 175.83Z" stroke="black" stroke-width="2.22937"/>
<path d="M883.871 178.037C883.99 178.037 884.104 177.989 884.188 177.905C884.272 177.821 884.319 177.707 884.319 177.588C884.319 177.469 884.272 177.355 884.188 177.271C884.104 177.186 883.99 177.139 883.871 177.139C883.752 177.139 883.637 177.186 883.553 177.271C883.469 177.355 883.422 177.469 883.422 177.588C883.422 177.707 883.469 177.821 883.553 177.905C883.637 177.989 883.752 178.037 883.871 178.037Z" stroke="black" stroke-width="2.22937"/>
<path d="M885.56 162.187C885.679 162.187 885.793 162.14 885.877 162.056C885.962 161.972 886.009 161.858 886.009 161.739C886.009 161.62 885.962 161.505 885.877 161.421C885.793 161.337 885.679 161.29 885.56 161.29C885.441 161.29 885.327 161.337 885.243 161.421C885.159 161.505 885.111 161.62 885.111 161.739C885.111 161.858 885.159 161.972 885.243 162.056C885.327 162.14 885.441 162.187 885.56 162.187Z" stroke="black" stroke-width="2.22937"/>
<path d="M845.732 143.835C845.851 143.835 845.965 143.788 846.049 143.704C846.133 143.62 846.181 143.505 846.181 143.386C846.181 143.267 846.133 143.153 846.049 143.069C845.965 142.985 845.851 142.938 845.732 142.938C845.613 142.938 845.499 142.985 845.415 143.069C845.33 143.153 845.283 143.267 845.283 143.386C845.283 143.505 845.33 143.62 845.415 143.704C845.499 143.788 845.613 143.835 845.732 143.835Z" stroke="black" stroke-width="2.22937"/>
<path d="M892.488 147.236C892.607 147.236 892.721 147.189 892.805 147.104C892.889 147.02 892.937 146.906 892.937 146.787C892.937 146.668 892.889 146.554 892.805 146.47C892.721 146.386 892.607 146.338 892.488 146.338C892.369 146.338 892.255 146.386 892.17 146.47C892.086 146.554 892.039 146.668 892.039 146.787C892.039 146.906 892.086 147.02 892.17 147.104C892.255 147.189 892.369 147.236 892.488 147.236Z" stroke="black" stroke-width="2.22937"/>
<path d="M871.113 112.583C871.232 112.583 871.346 112.535 871.43 112.451C871.514 112.367 871.562 112.253 871.562 112.134C871.562 112.015 871.514 111.901 871.43 111.816C871.346 111.732 871.232 111.685 871.113 111.685C870.994 111.685 870.88 111.732 870.795 111.816C870.711 111.901 870.664 112.015 870.664 112.134C870.664 112.253 870.711 112.367 870.795 112.451C870.88 112.535 870.994 112.583 871.113 112.583Z" stroke="black" stroke-width="2.22937"/>
<path d="M888.128 112.096C888.247 112.096 888.362 112.049 888.446 111.965C888.53 111.88 888.577 111.766 888.577 111.647C888.577 111.528 888.53 111.414 888.446 111.33C888.362 111.246 888.247 111.198 888.128 111.198C888.009 111.198 887.895 111.246 887.811 111.33C887.727 111.414 887.68 111.528 887.68 111.647C887.68 111.766 887.727 111.88 887.811 111.965C887.895 112.049 888.009 112.096 888.128 112.096Z" stroke="black" stroke-width="2.22937"/>
<path d="M863.023 87.8755C863.142 87.8755 863.256 87.8282 863.34 87.7441C863.424 87.6599 863.472 87.5458 863.472 87.4268C863.472 87.3078 863.424 87.1936 863.34 87.1095C863.256 87.0253 863.142 86.978 863.023 86.978C862.904 86.978 862.79 87.0253 862.706 87.1095C862.622 87.1936 862.574 87.3078 862.574 87.4268C862.574 87.5458 862.622 87.6599 862.706 87.7441C862.79 87.8282 862.904 87.8755 863.023 87.8755Z" stroke="black" stroke-width="2.22937"/>
<path d="M820.568 111.764L820.508 111.576L820.568 111.451L820.678 111.576L820.568 111.764ZM845.204 112.536L843.141 111.576L842.964 111.217L842.038 109.336L841.086 107.097L840.724 106.668L839.833 104.857L840.724 103.667L842.039 104.857L842.964 105.672L844.534 107.097L845.204 107.704L846.95 109.336L847.443 110.255L847.858 111.576L847.443 111.814L845.204 112.536Z" stroke="black" stroke-width="2.22937"/>
<path d="M831.239 84.7002L831.768 85.0881L834.007 86.7306L834.293 86.9398L836.247 88.5607L836.99 89.1794L838.487 90.537L839.459 91.419L840.726 92.569L841.927 93.6586L842.966 94.601L844.396 95.8983L845.205 96.633L846.864 98.1379L847.445 98.665L849.333 100.377L849.685 100.697L851.801 102.617L851.924 102.811L852.66 104.857L853.362 107.096L854.065 109.336L854.164 109.653L854.767 111.576L854.164 111.931L851.924 113.239L850.926 113.815L849.685 114.512L847.445 115.771L846.548 116.055L845.205 116.479L844.244 116.055L842.966 115.491L840.726 114.503L839.168 113.815L838.487 113.492L836.247 112.399L834.625 111.576L834.007 110.322L833.325 109.336L832.419 107.096L831.768 105.773L831.054 107.096L830.648 109.336L830.358 111.576L829.699 113.815L829.528 114.318L828.936 116.055L828.174 118.294L827.411 120.534L827.289 120.892L825.049 121.858L822.809 121.522L820.57 121.185L818.938 120.534L818.33 120.249L816.342 118.294L816.091 118.048L814.064 116.055L813.851 115.846L811.786 113.815L811.611 113.258L811.086 111.576L811.611 110.48L812.16 109.336L813.233 107.096L813.851 105.808L814.307 104.857L815.311 102.617L816.091 100.963L816.355 100.377L816.091 99.8401L813.851 99.7728L811.611 99.7056L809.372 99.6384L807.132 99.5712L804.892 99.504L802.653 99.4367L800.413 99.1272L799.546 98.1379L800.413 97.5575L802.653 96.2233L802.893 95.8983L804.892 94.5599L806.239 93.6586L807.132 93.0611L809.372 91.5623L809.586 91.419L811.611 90.0635L812.932 89.1794L813.851 88.5647L816.091 87.0659L816.279 86.9398L818.33 85.5671L819.626 84.7002M842.966 176.961L842.123 176.524L840.726 175.195L839.812 174.285L840.726 172.947L841.342 172.045L842.872 169.805L842.966 169.669L844.403 167.566L845.205 166.391L845.636 167.566L846.442 169.805L847.23 172.045L847.445 172.666L847.869 174.285L848.163 176.524L847.445 178.378L845.205 177.857L842.966 176.961ZM793.694 149.806L793.072 149.649L791.455 148.924L789.727 147.409L791.455 146.067L792.611 145.17L793.694 144.328L795.495 142.93L795.934 142.589L798.174 140.85L798.379 140.69L800.413 139.111L801.463 138.451L802.653 137.573L804.148 138.451L804.892 139.351L806.001 140.69L807.132 142.057L807.854 142.93L809.372 144.764L809.708 145.17L809.372 145.399L807.207 147.409L807.132 147.463L804.892 149.07L804.085 149.649L802.653 150.676L800.413 151.447L798.174 150.934L795.934 150.37L793.694 149.806ZM874.32 130.558L873.179 129.492L872.081 127.828L871.677 127.253L871.574 125.013L871.47 122.774L871.366 120.534L871.262 118.294L871.249 116.055L871.686 113.815L872.081 113.219L872.863 113.815L874.32 115.701L874.594 116.055L876.324 118.294L876.56 118.6L878.054 120.534L878.8 121.499L879.22 122.774L878.944 125.013L878.8 125.76L878.512 127.253L876.968 129.492L876.56 129.794L874.32 130.558Z" stroke="black" stroke-width="2.22937"/>
<path d="M843.479 84.7007L845.199 85.9622L846.533 86.9403L847.439 87.7032L849.186 89.1799L849.678 89.6267L851.654 91.4195L851.918 91.6587L854.123 93.6591L854.158 93.6908L856.397 95.7228L856.521 95.8987L857.455 98.1383L858.157 100.378L858.637 101.909L858.86 102.618L859.799 104.857L860.877 106.529L862.997 104.857L863.116 104.763L865.356 102.996L865.836 102.618L867.595 101.442L869.835 101.961L871.983 102.618L872.075 102.646L874.314 103.33L876.554 104.014L878.793 104.698L879.313 104.857L881.033 105.383L883.273 105.524L885.512 105.377L887.752 105.207L889.991 105.037L892.231 104.867L892.362 104.857L894.471 104.697L896.71 104.527L898.712 104.857L898.377 107.097L898.059 109.336L897.863 111.576L898.134 113.816L898.442 116.055L898.75 118.295L898.95 119.751L899.058 120.534L899.365 122.774L899.673 125.014L899.981 127.253L900.289 129.493L900.596 131.733L900.904 133.972L901.19 136.05L901.212 136.212L901.519 138.451L901.827 140.691L902.525 142.931L903.429 144.721L903.634 145.17L904.913 147.41L903.429 148.322L901.19 149.108L898.95 149.571L898.449 149.649L896.71 149.877L894.471 150.17L892.231 150.463L889.991 150.089L889.458 149.649L887.752 148.245L886.738 147.41L885.512 146.071L884.565 145.17L883.943 142.931L883.321 140.691L883.273 140.515L882.7 138.451L882.036 136.212L881.033 135.626L880.242 136.212L878.793 137.283L877.215 138.451L876.554 138.94L874.314 138.588L874.168 138.451L872.075 136.497L871.769 136.212L869.835 134.406L869.371 133.972L867.595 132.314L866.972 131.733L865.356 130.223L864.574 129.493L863.116 127.864L862.505 127.253L862.05 125.014L860.911 122.774L860.877 122.713L860.044 120.534L859.119 118.295L858.637 117.193L858.189 116.055L856.397 115.055L854.158 115.934L853.942 116.055L851.918 117.192L849.956 118.295L849.678 118.451L847.439 119.709L845.199 120.414L842.96 119.426L840.72 118.438L840.397 118.295L838.48 117.449L836.241 117.966L836.107 118.295L835.393 120.534L834.679 122.774L834.001 124.902L833.966 125.014L833.252 127.253L834.001 128.254L834.958 129.493L836.241 130.935L836.949 131.733L838.48 133.455L838.94 133.972L840.72 135.974L840.931 136.212L842.919 138.451L842.96 138.496L844.896 140.691L845.199 141.025L846.084 140.691L847.439 140.2L849.553 138.451L849.678 138.348L851.918 137.016L853.781 136.212L854.158 136.035L854.418 136.212L854.209 138.451L854.158 139.009L854.001 140.691L853.793 142.931L854.158 143.308L855.845 145.17L856.397 145.552L858.637 147.101L859.084 147.41L860.877 148.649L862.323 149.649L863.116 151.693L863.149 151.889L863.116 151.953L862.007 154.129L860.877 156.347L860.866 156.368L859.724 158.608L858.637 160.741L858.583 160.847L857.441 163.087L856.397 165.136L856.31 165.327L856.264 167.566L856.397 168.077L856.85 169.806L857.436 172.046L858.022 174.285L858.351 176.525L858.515 178.764L858.637 180.431L858.679 181.004L858.843 183.244L859.007 185.483L859.171 187.723L859.335 189.962L859.499 192.202L859.068 194.442L858.637 194.874L857.529 194.442L856.397 194.077L854.158 193.354L851.918 192.631L850.587 192.202L849.678 191.909L847.439 191.186L845.199 190.464L843.646 189.962L842.96 189.741L840.72 189.018L838.48 188.296L836.751 187.723L836.241 187.534L834.001 186.36L832.327 185.483L831.762 185.187L829.522 184.013L828.053 183.244L827.282 182.84L825.043 181.666L822.827 181.004L822.803 180.995L822.584 181.004L820.564 181.09L818.324 181.185L816.084 181.281L813.845 181.376L811.605 181.513L809.365 181.779L807.126 182.086L804.886 182.393L802.647 182.622L800.407 182.331L798.258 181.004L798.167 180.948L795.928 179.565L794.631 178.764L793.688 178.182L791.449 176.799L791.004 176.525L789.209 175.416M807.126 170.762L809.365 169.988L809.894 169.806L811.605 169.215L813.506 167.566L812.883 165.327L812.068 163.087L811.605 161.815L811.253 160.847L810.438 158.608L809.365 157.141L807.126 158.374L806.701 158.608L804.886 159.25L802.647 158.703L802.498 158.608L800.407 158.081L798.22 158.608L799.792 160.847L800.407 161.718L801.374 163.087L802.647 164.89L802.955 165.327L804.537 167.566L804.886 168.061L806.319 169.806L807.126 170.762Z" stroke="black" stroke-width="2.22937"/>
<path d="M900.589 177.13L900.384 176.524L899.625 174.285L898.955 172.309L898.866 172.045L898.106 169.805L897.347 167.566L896.715 165.702L896.588 165.326L895.829 163.087L895.07 160.847L894.476 159.095L894.311 158.607L892.236 157.926L889.997 158.126L887.757 158.4L885.517 157.241L884.457 156.368L883.278 155.397L881.443 154.128L881.038 153.805L880.367 154.128L878.798 156.303L878.751 156.368L877.136 158.607L876.559 159.408L875.521 160.847L874.319 162.513L873.971 163.087L872.447 165.326L872.08 165.821L871.202 167.566L870.059 169.805L869.84 170.202L868.901 172.045L868.29 174.285L868.55 176.524L868.693 178.764L868.825 181.003L868.934 183.243L869.038 185.483L869.141 187.722L869.84 188.753L872.08 189.57L874.319 189.925L874.551 189.962L876.559 190.28L878.798 190.635L881.038 190.991L883.278 191.346L885.517 191.701L887.048 192.202L886.304 194.441L885.555 196.681M855.731 84.7002L856.402 85.1929L858.642 86.7517L858.784 86.9398L860.882 88.7391L861.354 89.1794L863.121 91.2922L865.361 90.9155L867.312 91.419L867.6 91.4924L869.022 91.419L869.84 91.3373L872.08 90.9087L874.145 89.1794L874.319 88.6482L874.878 86.9398L875.611 84.7002M845.204 132.252L846.687 131.732L847.444 131.468L849.684 129.616L849.832 129.492L851.923 127.706L852.433 127.253L851.923 125.957L851.552 125.013L850.67 122.774L849.684 122.391L849.001 122.774L847.444 123.646L845.204 124.348L842.965 123.754L841.52 125.013L840.807 127.253L842.751 129.492L842.965 129.732L844.742 131.732L845.204 132.252Z" stroke="black" stroke-width="2.22937"/>
<path d="M878.796 181.313L881.036 182.14L883.276 182.495L885.515 182.85L887.755 183.189L888.936 181.005L888.087 178.765L887.755 177.89L887.238 176.526L886.389 174.286L885.54 172.046L885.515 171.982L883.276 171.356L882.634 172.046L881.036 173.764L880.551 174.286L878.796 176.172L878.49 176.526L878.438 178.765L878.541 181.005L878.796 181.313Z" stroke="black" stroke-width="2.22937"/>
<path d="M910.012 155.249L909.886 151.25L909.51 147.266L908.884 143.314L908.011 139.409L906.894 135.566L905.539 131.802L903.95 128.13L902.133 124.564L900.097 121.12L897.847 117.811L895.395 114.649L892.749 111.648L889.92 108.818L886.918 106.172L883.756 103.72L880.447 101.471L877.003 99.4339L873.438 97.6173L869.766 96.0282L866.001 94.6728L862.158 93.5565L858.253 92.6836L854.301 92.0577L850.318 91.6811L846.318 91.5554L842.319 91.6811L838.336 92.0577L834.383 92.6836L830.479 93.5565L826.636 94.6728L822.871 96.0282L819.199 97.6173L815.634 99.4339L812.19 101.471L808.88 103.72L805.719 106.172L802.717 108.818L799.888 111.648L797.242 114.649L794.789 117.811L792.54 121.12L790.503 124.564L788.687 128.13L787.098 131.802L785.742 135.566L784.626 139.409L783.753 143.314L783.127 147.266L782.751 151.25L782.625 155.249L782.751 159.248L783.127 163.232L783.753 167.184L784.626 171.089L785.742 174.931L787.098 178.696L788.687 182.368L790.503 185.933L792.54 189.377L794.789 192.687L797.242 195.849L799.888 198.85L802.717 201.679L805.719 204.325L808.88 206.778L812.19 209.027L815.634 211.064L819.199 212.88L822.871 214.469L826.636 215.825L830.479 216.941L834.383 217.814L838.336 218.44L842.319 218.817L846.318 218.942L850.318 218.817L854.301 218.44L858.253 217.814L862.158 216.941L866.001 215.825L869.766 214.469L873.438 212.88L877.003 211.064L880.447 209.027L883.756 206.778L886.918 204.325L889.92 201.679L892.749 198.85L895.395 195.849L897.847 192.687L900.097 189.377L902.133 185.933L903.95 182.368L905.539 178.696L906.894 174.931L908.011 171.089L908.884 167.184L909.51 163.232L909.886 159.248L910.012 155.249Z" stroke="black" stroke-width="2.22937" stroke-linecap="square"/>
<path d="M832.982 92.9666L846.322 82L859.662 92.9666" stroke="black" stroke-width="2.22937" stroke-linecap="square"/>
<path d="M783.012 148.178L781.356 145.376L780.337 145.274L778.821 145.745L777.292 148.178L777.534 155.949L776.643 167.121L778.553 171.974L781.356 172.878L784.031 170.522" stroke="black" stroke-width="2.22937" stroke-linecap="square"/>
<path d="M909.63 148.178L911.286 145.376L912.306 145.274L913.821 145.745L915.35 148.178L915.108 155.949L916 167.121L914.089 171.974L911.286 172.878L908.611 170.522" stroke="black" stroke-width="2.22937" stroke-linecap="square"/>
<path opacity="0.11" d="M30.3834 43.6436C30.1029 43.2255 27.1491 40.6622 21.8907 36.6854C17.8302 33.6146 11.246 33.3664 3.78157 34.51C0.298703 35.0436 -1.97738 37.8893 6.02261 67.4443C14.0226 96.9994 32.5178 153.793 55.1363 168.325C77.7549 182.858 103.936 153.408 119.359 132.199C141.984 101.084 142.612 74.2073 139.986 54.2822C138.929 46.2617 132.21 43.9373 124.781 43.1548C107.913 41.3781 86.7925 51.1171 65.2467 65.4097C43.479 79.8495 30.7983 104.065 21.0739 127.543C16.2083 139.29 14.6381 151.885 19.0267 167.625C23.4154 183.364 34.6171 202.17 52.5797 212.496C70.5423 222.821 94.9264 224.096 113.377 218.874C131.827 213.652 143.605 201.894 153.658 187.616C163.711 173.338 171.683 156.895 177.277 140.61C188.012 109.361 189.077 79.2957 188.284 54.8133C187.921 43.598 185.238 34.9783 181.046 28.5147C176.854 22.0511 170.621 18.041 162.818 16.4647C155.016 14.8884 145.834 15.8673 132.047 29.3132C118.26 42.759 100.147 68.6421 88.9947 93.0131C77.8424 117.384 74.1994 139.458 73.9377 161.92C73.6761 184.381 76.906 206.56 83.8598 225.703C90.8135 244.847 101.393 260.283 114.486 271.739C127.579 283.195 142.865 290.203 160.618 291.844C178.371 293.484 198.128 289.546 222.192 267.598C246.256 245.65 274.028 205.812 290.203 173.923C306.379 142.034 310.116 119.302 311.334 98.1912C312.552 77.0801 311.137 58.2789 307.669 41.8098C304.201 25.3407 298.722 11.7733 283.127 3.24933C267.531 -5.27462 241.985 -8.34399 221.306 -4.41612C200.628 -0.48826 185.592 10.5298 171.839 25.8422C158.086 41.1546 146.071 60.4273 136.88 81.9767C127.688 103.526 121.685 126.768 118.827 149.242C115.968 171.716 116.437 192.717 121.228 211.356C126.019 229.994 135.118 245.634 148.882 258.033C162.645 270.431 180.799 279.114 201.434 284.255C222.069 289.396 244.636 290.732 267.061 288.091C289.486 285.449 311.087 278.791 334.038 262.557C356.989 246.322 380.636 220.715 393.724 201.653C406.813 182.591 408.625 170.852 408.212 158.748C407.378 134.348 394.004 113.384 376.021 98.4245C358.576 83.9122 332.979 84.4559 305.509 92.1086C288.393 96.8766 269.732 116.186 258.247 131.576C238.706 157.762 244.576 189.793 253.936 216.768C263.5 244.333 296.562 258.08 329.676 266.677C346.672 271.089 365.377 269.389 383.677 264.908C401.976 260.426 419.64 251.626 438.998 226.999C458.357 202.372 478.873 162.184 490.409 131.851C501.944 101.517 503.877 82.2543 503.846 66.0319C503.815 49.8094 501.763 37.2107 490.219 27.3325C478.676 17.4542 457.703 10.6782 441.77 13.1822C425.838 15.6862 415.582 27.6755 405.594 43.6897C395.606 59.7038 386.196 79.3793 379.655 110.386C373.114 141.393 369.726 183.136 372.489 212.824C375.252 242.512 384.269 258.881 406.749 273.428C429.229 287.975 464.899 300.204 493.125 303.455C521.351 306.706 541.052 300.608 558.046 290.782C575.039 280.957 588.729 267.588 602.51 239.788C616.292 211.988 629.749 170.162 636.279 137.887C642.809 105.613 642.004 84.1578 631.919 62.0196C621.835 39.8814 602.496 17.7101 585.479 5.65753C568.463 -6.39501 554.355 -7.65691 534.481 1.13182C514.607 9.92055 489.394 28.7982 473.658 47.1027C457.921 65.4072 452.425 82.5666 449.558 99.7119C446.691 116.857 446.62 133.468 451.179 148.982C455.739 164.495 464.932 178.406 481.098 190.943C497.265 203.48 520.127 214.22 559.37 219.823C598.612 225.426 653.542 225.566 691.585 221.345C729.628 217.124 749.12 208.538 767.824 190.733C786.528 172.927 803.853 146.162 811.936 125.271C820.018 104.381 818.333 90.176 804.869 72.2176C791.405 54.2592 766.213 32.9776 744.669 20.5294C723.126 8.08118 705.994 5.11125 684.42 10.3994C662.846 15.6875 637.347 29.3238 622.058 44.658C606.768 59.9922 602.46 76.6111 605.242 102.638C608.025 128.664 618.028 163.595 635.037 188.323C652.046 213.052 675.757 226.52 718.059 235.386C760.36 244.253 820.534 248.11 867.477 244.835C914.421 241.561 946.31 231.037 978.811 208.945C1011.31 186.852 1043.46 153.51 1061.61 127.728C1079.76 101.947 1082.94 84.7364 1079.41 64.5771C1075.89 44.4177 1065.56 21.8308 1047.43 11.2289C1029.29 0.627021 1003.65 2.6945 985.436 10.6032C967.223 18.5119 957.212 32.1991 949.883 57.2074C942.553 82.2157 938.209 118.13 939.51 143.07C940.811 168.01 947.888 180.886 958.559 191.311C969.231 201.735 983.282 209.316 1010.35 213.346C1037.42 217.375 1077.09 217.622 1107.09 214.461C1137.09 211.3 1156.23 204.723 1177.76 191.056C1199.28 177.389 1222.62 156.831 1235.91 140.465C1249.19 124.099 1251.73 112.549 1242.97 99.1784C1234.21 85.8081 1214.09 70.9686 1189.74 63.273C1165.4 55.5775 1137.46 55.4755 1116.96 59.2558C1096.45 63.0362 1084.24 70.702 1074.5 89.3133C1064.75 107.925 1057.85 137.249 1057.5 160.087C1057.15 182.924 1063.55 198.386 1087.24 218.437C1110.93 238.488 1151.72 262.661 1184.67 276.241C1217.63 289.822 1241.53 292.078 1273.58 286.222C1305.63 280.366 1345.1 266.33 1371.11 244.463C1397.12 222.597 1408.48 193.326 1411.58 170.276C1414.68 147.227 1409.18 131.286 1389.86 113.671C1370.54 96.0557 1337.56 77.2495 1296.91 72.5517C1256.26 67.8539 1208.95 77.8344 1174.09 92.4836C1139.23 107.133 1118.26 126.148 1098.09 152.485C1077.91 178.822 1059.16 211.904 1048.95 236.161C1038.75 260.418 1037.66 274.847 1047.71 289.661C1057.76 304.474 1078.99 319.234 1105.29 325.394C1131.59 331.554 1162.31 328.665 1186.11 311.608C1209.92 294.55 1225.88 263.41 1227.62 241.757C1229.36 220.105 1216.4 208.883 1181.31 195.649C1146.21 182.415 1089.37 167.509 1046.89 160.357C1004.41 153.204 978.017 154.257 948.025 162.744C918.033 171.232 885.244 187.122 867.487 209.019C849.73 230.916 847.999 258.339 854.55 278.881C861.101 299.423 875.986 312.254 911.186 323.301C946.385 334.347 1001.45 343.222 1051.55 334.835C1101.65 326.448 1145.12 300.532 1173.21 266.327C1201.3 232.121 1212.68 190.412 1209.83 153.453C1206.97 116.493 1189.53 85.547 1167.01 66.7435C1144.48 47.94 1117.41 42.2168 1094.65 51.2222C1071.89 60.2276 1054.27 84.1349 1043.92 106.87C1033.57 129.605 1031.02 150.443 1040.34 179.64C1049.66 208.836 1070.92 245.761 1105.8 271.275C1140.68 296.79 1188.55 309.776 1228.3 308.439C1268.06 307.103 1298.25 291.05 1315.85 268.73C1333.46 246.409 1337.56 218.308 1328.38 188.837C1319.21 159.366 1296.62 129.376 1267.91 108.431C1239.2 87.4868 1205.05 76.4968 1181.92 71.7606C1158.79 67.0245 1147.73 68.8753 1137.15 76.7998C1126.58 84.7243 1116.82 98.6665 1122.44 114.241C1128.06 129.816 1149.34 146.6 1182.88 156.715C1216.43 166.83 1261.61 169.767 1295.2 162.542C1328.79 155.318 1349.42 137.842 1355.49 117.514C1361.57 97.1864 1352.45 74.5358 1341.27 59.6488C1330.09 44.7618 1317.14 38.3248 1297.33 35.0534C1277.53 31.782 1251.27 31.8712 1230.44 41.073C1209.61 50.2748 1195 68.5865 1190.06 90.853C1185.11 113.119 1190.27 138.786 1200.77 155.926C1211.27 173.067 1226.96 180.903 1253.08 184.735C1279.21 188.567 1315.3 188.156 1340.56 177.129C1365.83 166.103 1379.18 144.472 1380.71 121.445C1382.25 98.4182 1371.57 74.6511 1358.79 58.303C1346.02 41.9549 1331.47 33.7461 1310.42 29.4587C1289.37 25.1713 1262.26 25.0541 1239.7 32.7423C1217.15 40.4305 1199.98 55.9277 1194.65 74.761C1189.32 93.5943 1196.36 115.294 1216.08 131.926C1235.81 148.557 1268 159.463 1295.1 160.077C1322.19 160.691 1343.21 150.682 1353.02 134.496C1362.83 118.309 1360.8 96.2471 1352.17 80.1874C1343.53 64.1278 1328.36 54.7387 1301.83 47.5259C1275.31 40.3131 1237.89 35.5612 1206.15 46.9216C1174.41 58.282 1149.48 85.8986 1135.65 120.381C1121.81 154.863 1119.83 195.374 1130.64 225.631C1141.45 255.888 1165.11 274.664 1191.75 281.74C1218.38 288.816 1247.27 283.623 1268.56 265.982C1289.85 248.341 1302.66 218.41 1302.09 187.576C1301.53 156.742 1287.19 125.914 1265.3 106.436C1243.4 86.9592 1214.38 79.7676 1190.04 84.4615C1165.7 89.1554 1146.92 105.953 1136.76 128.515C1126.59 151.077 1125.61 178.895 1139.68 200.535C1153.75 222.174 1182.9 236.792 1214.21 240.516C1245.51 244.24 1278.08 236.628 1298.37 219.2C1318.66 201.773 1325.67 174.76 1325.77 154.799C1325.88 134.838 1318.85 122.746 1300.47 112.219C1282.08 101.692 1252.56 93.0961 1225.79 97.9919C1199.03 102.888 1175.92 121.536 1162.43 142.12C1148.93 162.704 1145.74 184.658 1147.84 199.403C1149.95 214.149 1157.44 221.019 1172.71 216.929C1187.98 212.84 1210.8 197.582 1223.26 175.872C1235.73 154.162 1237.15 126.461 1228.01 106.693C1218.87 86.9255 1199.11 75.9304 1178.14 79.1531C1157.16 82.3758 1135.56 100.15 1121.68 126.995C1107.8 153.841 1102.29 189.22 1109.01 216.255C1115.72 243.29 1134.83 260.908 1154.06 264.884C1173.28 268.861 1192.06 258.661 1201.33 242.21C1210.6 225.759 1209.8 203.366 1205.35 187.172C1200.91 170.979 1192.85 161.664 1177.48 154.336C1162.11 147.009 1139.69 141.951 1119.54 143.956C1099.4 145.96 1082.22 155.181 1072.43 167.618C1062.63 180.054 1060.74 195.426 1068.42 208.515C1076.1 221.604 1093.41 231.944 1112.4 232.662C1131.39 233.379 1151.54 224.161 1161.65 206.859C1171.76 189.558 1171.22 164.452 1165.92 145.614C1160.62 126.775 1150.58 114.964 1127.67 103.432C1104.77 91.8995 1069.3 81.0038 1038.66 81.3269C1008.01 81.65 983.273 93.5221 969.099 115.956C954.924 138.39 952.067 171.026 969.063 200.673C986.059 230.321 1023 255.99 1067.72 266.489C1112.44 276.988 1163.83 271.541 1203.41 242.613C1243 213.685 1269.24 161.442 1283.19 125.063C1297.14 88.6846 1298.01 69.7535 1292.82 46.0959C1287.63 22.4383 1276.37 -5.37212 1229.25 -13.2719C1182.13 -21.1716 1099.51 -8.31803 1034.7 27.0712C969.886 62.4604 925.388 119.996 905.509 176.515C885.629 233.034 891.717 286.794 917.77 325.405C943.823 364.015 989.657 385.847 1032.83 384.636C1076 383.424 1115.11 358.507 1140.94 323.719C1166.76 288.931 1178.11 245.027 1173.04 206.375C1167.97 167.722 1146.13 135.652 1114.44 118.597C1082.75 101.542 1041.86 100.474 1005.13 119.627C968.389 138.78 937.032 178.187 919.799 220.87C902.567 263.552 900.407 308.315 907.955 340.686C915.503 373.058 932.823 391.68 949.014 401.199C965.206 410.717 979.745 410.566 982.806 404.025C985.868 397.484 977.011 384.556 924.3 377.388C871.589 370.22 775.292 369.203 713.325 371.565C651.358 373.926 626.64 379.698 609.193 384.175C591.746 388.653 582.318 391.661 559.878 384.036C537.438 376.41 502.27 358.06 467.676 345.95C433.082 333.839 400.127 328.524 371.331 326.018C319.057 321.468 285.202 328.639 275.905 336.714C272.969 339.264 285.669 344.067 300.04 341.454C314.411 338.842 333.141 330.047 344.522 310.207C355.902 290.368 359.367 259.751 352.942 231.6C346.516 203.449 330.096 178.693 309.429 162.55C288.761 146.408 264.344 139.629 244.859 137.813C225.375 135.998 211.563 139.35 202.779 145.027C193.995 150.704 190.658 158.605 194.784 166.641C198.911 174.678 210.602 182.611 226.556 184.466C242.509 186.321 262.371 181.857 274.772 174.101C287.173 166.345 291.512 155.431 291.657 138.928C291.802 122.426 287.621 100.665 274.516 85.0687C261.412 69.4725 239.511 60.7003 218.759 61.0276C198.007 61.3548 179.069 71.0473 166.066 85.5148C153.063 99.9824 146.57 118.931 149.452 135.91C152.333 152.889 164.787 167.323 177.968 175.504C191.149 183.686 204.681 185.177 224.593 174.852C244.506 164.527 270.389 142.341 286.996 117.56C303.603 92.7802 310.149 66.0788 307.14 46.2153C304.13 26.3519 291.366 14.1356 269.888 16.3558C248.411 18.576 218.607 35.6028 194.67 64.7929C170.733 93.9829 153.566 134.82 148.866 169.774C144.166 204.728 152.454 232.562 178.237 246.46C204.02 260.359 247.047 259.479 282.184 239.842C317.32 220.204 343.262 181.834 358.038 153.384C372.814 124.933 375.639 107.565 369.195 87.8327C362.751 68.1005 346.953 46.5308 318.187 40.0168C289.421 33.5029 248.165 42.6982 212.786 59.0868C177.406 75.4754 149.152 98.7786 133.975 118.065C118.798 137.352 117.554 151.916 134.647 162.719C151.74 173.522 187.209 180.122 219.151 178.389C251.093 176.656 278.435 166.39 295.927 151.005C313.419 135.62 320.233 115.427 316.317 98.4333C312.402 81.4396 297.549 68.2571 277.166 64.4195C256.782 60.5819 231.317 66.4886 211.839 80.2794C192.362 94.0701 179.643 115.566 173.726 135.002C167.809 154.439 169.079 171.165 180.19 182.443C191.301 193.721 212.216 199.044 232.48 192.206C252.743 185.367 271.723 166.207 281.772 145.841C291.821 125.475 292.364 104.484 283.843 91.1743C275.323 77.865 257.722 72.8735 240.104 77.5307C222.485 82.1878 205.382 96.6449 194.098 111.946C182.815 127.246 177.869 142.953 183.45 153.787C189.031 164.621 205.288 170.107 226.394 167.974C247.5 165.84 272.962 155.921 289.496 143.275C306.031 130.629 312.865 115.558 313.026 105.557C313.187 95.5556 306.467 91.0816 296.139 94.1902C269.513 102.204 253.969 129.175 247.889 146.094C245.407 153 245.605 156.976 247.032 158.171C248.46 159.365 251.484 157.779 254.167 153.912C256.85 150.045 259.101 143.944 259.962 139.756C260.823 135.569 260.227 133.478 257.263 135.557C247.615 142.326 241.201 162.123 240.968 182.995C240.863 192.427 249.589 198.574 262.863 196.518C276.137 194.462 295.945 183.778 310.74 166.98C341.214 132.38 344.35 96.4118 337.436 82.0629C333.278 73.4348 315.972 70.9084 297.732 75.7838C279.492 80.6592 257.818 95.2719 241.718 113.206C225.618 131.14 215.75 151.952 212.999 169.019C210.248 186.086 214.913 198.776 229.117 202.927C243.321 207.077 266.922 202.302 288.011 184.08C309.1 165.858 326.96 134.333 334.511 106.312C342.063 78.2921 338.764 54.7314 320.656 41.6088C302.548 28.4861 269.731 26.5155 234.617 35.9869C199.502 45.4583 163.086 66.4315 136.829 88.0245C110.573 109.617 95.5802 131.195 87.737 146.295C79.8938 161.395 79.6542 169.364 87.8695 179.264C96.0848 189.164 112.762 200.753 138.58 203.008C164.397 205.262 198.848 197.831 219.234 182.469C239.62 167.106 244.897 144.037 244.074 124.063C243.25 104.089 236.165 87.9087 224.596 78.3598C213.027 68.811 197.188 66.384 162.605 78.227C128.023 90.07 75.1754 116.257 41.0642 140.617C6.95299 164.977 -6.82091 186.717 -6.33619 206.089C-5.85148 225.46 9.30925 241.804 61.1599 248.631C113.01 255.459 201.092 252.275 257.601 240.061C314.11 227.848 336.378 206.701 346.319 186.784C356.259 166.867 353.198 148.821 324.557 138.523C295.916 128.226 241.789 126.225 186.516 135.956C131.243 145.687 76.4634 167.211 40.198 184.919C3.93268 202.628 -12.1585 215.869 -25.8716 233.31C-39.5847 250.752 -50.432 271.993 -47.5257 284.592C-44.6194 297.191 -27.6308 300.506 -3.86244 293.591C19.9059 286.677 49.9393 269.433 74.1947 212.324C98.4501 155.214 116.017 58.761 120.422 -7.69879C124.827 -74.1586 115.538 -107.702 104.451 -126.706C93.3652 -145.709 80.764 -149.156 60.4412 -124.665C40.1184 -100.173 12.4559 -47.6399 -4.67397 -6.51266C-21.8038 34.6146 -27.5627 62.7436 -29.8003 80.551C-32.0379 98.3584 -30.5797 104.992 -29.0773 111.826" stroke="black" stroke-width="2" stroke-linecap="round" stroke-linejoin="round" stroke-dasharray="4 4"/>
</g>
<defs>
<clipPath id="clip0_2437_526">
<rect width="1400" height="300" fill="white"/>
</clipPath>
</defs>
</svg>
